<svg width="165" height="54" viewBox="0 0 165 54" fill="none" xmlns="http://www.w3.org/2000/svg">
<rect x="0.5" y="0.5" width="164" height="53" rx="3.5" fill="#F5F5F5" stroke="#CCCCCC"/>
<path d="M14.2021 19V16.772H10.165V15.7246L14.4116 9.69434H15.3447V15.7246H16.6016V16.772H15.3447V19H14.2021ZM14.2021 15.7246V11.5288L11.2886 15.7246H14.2021ZM18.417 19V17.6987H19.7183V19H18.417ZM23.1523 13.9536C22.6784 13.7801 22.3271 13.5326 22.0986 13.2109C21.8701 12.8893 21.7559 12.5042 21.7559 12.0557C21.7559 11.3786 21.9992 10.8094 22.4858 10.3481C22.9725 9.88688 23.62 9.65625 24.4282 9.65625C25.2407 9.65625 25.8945 9.89323 26.3896 10.3672C26.8848 10.8369 27.1323 11.4103 27.1323 12.0874C27.1323 12.519 27.0181 12.8957 26.7896 13.2173C26.5653 13.5347 26.2225 13.7801 25.7612 13.9536C26.3325 14.1398 26.7663 14.4403 27.0625 14.855C27.363 15.2697 27.5132 15.7648 27.5132 16.3403C27.5132 17.1359 27.2318 17.8045 26.6689 18.3462C26.1061 18.8879 25.3656 19.1587 24.4473 19.1587C23.529 19.1587 22.7884 18.8879 22.2256 18.3462C21.6628 17.8003 21.3813 17.1211 21.3813 16.3086C21.3813 15.7035 21.5337 15.1978 21.8384 14.7915C22.1473 14.381 22.5853 14.1017 23.1523 13.9536ZM22.9238 12.0176C22.9238 12.4577 23.0656 12.8174 23.3491 13.0967C23.6326 13.376 24.0008 13.5156 24.4536 13.5156C24.8937 13.5156 25.2534 13.3781 25.5327 13.103C25.8162 12.8237 25.958 12.4831 25.958 12.0811C25.958 11.6621 25.812 11.3109 25.52 11.0273C25.2323 10.7396 24.8726 10.5957 24.4409 10.5957C24.005 10.5957 23.6432 10.7354 23.3555 11.0146C23.0677 11.2939 22.9238 11.6283 22.9238 12.0176ZM22.5557 16.3149C22.5557 16.6408 22.6318 16.9561 22.7842 17.2607C22.9408 17.5654 23.1714 17.8024 23.4761 17.9717C23.7808 18.1367 24.1087 18.2192 24.46 18.2192C25.0059 18.2192 25.4565 18.0436 25.812 17.6924C26.1675 17.3411 26.3452 16.8947 26.3452 16.353C26.3452 15.8029 26.1611 15.348 25.793 14.9883C25.429 14.6286 24.972 14.4487 24.4219 14.4487C23.8844 14.4487 23.438 14.6265 23.0825 14.9819C22.7313 15.3374 22.5557 15.7817 22.5557 16.3149Z" fill="#E57125"/>
<g clip-path="url(#clip0_4210_29821)">
<path d="M17.5255 24.3631L16.6808 25.0995C16.5414 25.0166 16.3754 24.922 16.2135 24.821C14.1505 23.5346 11.5428 24.319 10.6534 26.5809C10.0457 28.1265 10.3868 29.9083 11.7635 31.0131C12.4146 31.5347 13.2167 31.8309 14.0497 31.8575C14.8828 31.884 15.7019 31.6393 16.3847 31.1602C16.7481 30.9207 17.0451 30.593 17.2482 30.2075C17.4514 29.822 17.5539 29.3913 17.5465 28.9554H14.3444V27.7204C15.784 27.7204 17.3348 27.711 18.777 27.711C18.8226 29.0207 18.6609 30.5856 17.7136 31.5997C16.6576 32.7301 15.3242 33.1224 13.8311 33.034C11.5626 32.8998 9.82575 31.4822 9.22183 29.4015C8.57034 27.1569 9.38515 25.119 11.2547 23.8355C13.0985 22.5697 15.876 22.7395 17.5255 24.3631Z" fill="#818181"/>
<path d="M39.3908 27.2668C39.3944 27.2883 39.398 26.7791 39.398 26.7791C39.5539 26.7791 40.6711 26.7823 40.6532 26.7787C40.6532 27.2995 40.6411 27.8339 40.6411 28.3146C40.6411 29.5468 40.6763 30.8581 40.6534 32.0899C40.666 32.6413 40.6349 33.1929 40.5605 33.7394C40.3146 35.0873 39.3252 35.848 38.1009 35.973C36.5132 36.1351 35.4178 35.5577 34.8042 34.2068L35.7959 33.7394C36.4469 34.8869 37.5583 35.1378 38.4442 34.6976C39.1905 34.3268 39.297 33.5521 39.2743 32.3964C38.4245 33.0108 37.5198 33.2355 36.5333 32.8697C35.8827 32.6338 35.3279 32.1896 34.9546 31.6057C34.5797 31.0076 34.4075 30.3042 34.4635 29.6C34.5195 28.8959 34.8008 28.2287 35.2655 27.6977C36.2966 26.5393 37.7572 26.4053 39.3908 27.2668ZM37.6077 31.9439C38.0099 31.9475 38.4018 31.8167 38.7216 31.5721C39.0413 31.3276 39.2707 30.9832 39.3734 30.5934C39.6661 29.5104 39.3413 28.515 38.535 28.0238C37.8468 27.6046 37.1128 27.6591 36.4637 28.1775C35.7923 28.7137 35.5265 29.7162 35.8234 30.5923C35.939 30.9784 36.1743 31.3175 36.4951 31.5605C36.816 31.8036 37.2056 31.9378 37.6077 31.9439Z" fill="#818181"/>
<path d="M33.4385 29.8315C33.4417 31.6977 32.1046 33.0409 30.2759 33.0439C28.3396 33.0471 27.1378 31.3379 27.1397 29.8723C27.1416 28.3605 28.2164 26.6897 30.3169 26.6471C32.0627 26.6117 33.4354 28.0498 33.4385 29.8315ZM32.1887 29.8698C32.196 28.832 31.6608 28.0777 30.7294 27.8132C30.3398 27.7113 29.9274 27.7426 29.5576 27.9022C29.1877 28.0617 28.8815 28.3404 28.6875 28.6941C28.4802 29.0375 28.3692 29.4307 28.3661 29.8321C28.3631 30.2336 28.4681 30.6284 28.6701 30.975C28.8678 31.3432 29.1835 31.6338 29.5663 31.8C29.949 31.9663 30.3764 31.9984 30.7796 31.8913C31.6347 31.6406 32.1818 30.8557 32.1887 29.8698Z" fill="#818181"/>
<path d="M26.1003 29.8392C26.1884 31.7793 24.614 33.0656 22.9482 33.0435C22.5339 33.043 22.1237 32.96 21.7416 32.7994C21.3594 32.6388 21.0129 32.4038 20.722 32.1079C20.4312 31.812 20.2018 31.4612 20.0473 31.0757C19.8927 30.6903 19.816 30.278 19.8216 29.8626C19.8279 28.083 21.1907 26.6354 22.9283 26.6485C24.9171 26.6636 26.1892 28.1634 26.1003 29.8392ZM21.0738 29.86C21.0779 31.1826 22.1514 32.1613 23.3315 31.9186C24.2846 31.7225 25.0373 30.6602 24.9247 29.6698C24.7967 28.5443 23.8825 27.6809 22.889 27.7474C21.8479 27.8171 21.0702 28.7222 21.0738 29.86Z" fill="#818181"/>
<path d="M50 28.9669C48.4982 29.5979 47.0939 30.1878 45.6933 30.7763C46.2817 32.2162 48.1758 32.284 49.0129 31.1274L49.8386 31.669C49.2592 32.6868 48.0945 33.1996 46.8331 33.0201C46.2053 32.941 45.6187 32.6647 45.1571 32.2309C44.6956 31.7971 44.3828 31.228 44.2635 30.6051C43.9583 29.2219 44.4813 27.8391 45.5467 27.1245C46.4533 26.5165 48.2737 26.4037 49.264 27.6557C49.3918 27.8091 49.5074 27.9724 49.6095 28.1441C49.7332 28.3651 49.8289 28.6018 50 28.9669ZM48.484 28.5588C47.9677 27.8016 47.464 27.6701 46.7732 27.7993C46.0598 27.9326 45.433 28.7256 45.4564 29.807L48.484 28.5588Z" fill="#818181"/>
<path d="M41.8832 32.8292C41.8843 29.6463 41.8801 26.5439 41.8863 23.3987H43.0438V32.8049C42.8586 32.8284 42.6966 32.8612 42.5338 32.8661C42.3668 32.8711 42.199 32.8488 41.8832 32.8292Z" fill="#818181"/>
</g>
<path d="M16.6426 44.7373L17.874 45.0483C17.6159 46.0597 17.1504 46.832 16.4775 47.3652C15.8089 47.8942 14.9901 48.1587 14.021 48.1587C13.0181 48.1587 12.2013 47.9556 11.5708 47.5493C10.9445 47.1388 10.4663 46.5464 10.1362 45.772C9.81038 44.9976 9.64746 44.166 9.64746 43.2773C9.64746 42.3083 9.83154 41.464 10.1997 40.7446C10.5721 40.021 11.099 39.473 11.7803 39.1006C12.4658 38.724 13.2191 38.5356 14.04 38.5356C14.971 38.5356 15.7539 38.7726 16.3887 39.2466C17.0234 39.7205 17.4657 40.387 17.7153 41.2461L16.5029 41.5317C16.2871 40.8547 15.974 40.3617 15.5635 40.0527C15.153 39.7438 14.6367 39.5894 14.0146 39.5894C13.2995 39.5894 12.7007 39.7607 12.2183 40.1035C11.7401 40.4463 11.4036 40.9076 11.209 41.4873C11.0143 42.0628 10.917 42.6574 10.917 43.271C10.917 44.0623 11.0312 44.7542 11.2598 45.3467C11.4925 45.9349 11.8522 46.375 12.3389 46.667C12.8255 46.959 13.3524 47.105 13.9194 47.105C14.6092 47.105 15.1932 46.9061 15.6714 46.5083C16.1496 46.1105 16.4733 45.5202 16.6426 44.7373ZM23.6694 48V47.0098C23.1447 47.7715 22.4316 48.1523 21.5303 48.1523C21.1325 48.1523 20.7601 48.0762 20.4131 47.9238C20.0703 47.7715 19.8143 47.5811 19.645 47.3525C19.48 47.1198 19.3636 46.8363 19.2959 46.502C19.2493 46.2777 19.2261 45.9222 19.2261 45.4355V41.2588H20.3687V44.9976C20.3687 45.5942 20.3919 45.9963 20.4385 46.2036C20.5104 46.5041 20.6628 46.741 20.8955 46.9146C21.1283 47.0838 21.416 47.1685 21.7588 47.1685C22.1016 47.1685 22.4232 47.0817 22.7236 46.9082C23.0241 46.7305 23.2357 46.4914 23.3584 46.1909C23.4854 45.8862 23.5488 45.4461 23.5488 44.8706V41.2588H24.6914V48H23.6694ZM26.0308 45.9878L27.1606 45.8101C27.2241 46.2629 27.3997 46.6099 27.6875 46.8511C27.9795 47.0923 28.3857 47.2129 28.9062 47.2129C29.431 47.2129 29.8203 47.1071 30.0742 46.8955C30.3281 46.6797 30.4551 46.4279 30.4551 46.1401C30.4551 45.882 30.3429 45.6789 30.1187 45.5308C29.9621 45.4292 29.5728 45.3001 28.9507 45.1436C28.1128 44.932 27.5309 44.75 27.2051 44.5977C26.8835 44.4411 26.638 44.2274 26.4688 43.9565C26.3037 43.6815 26.2212 43.3789 26.2212 43.0488C26.2212 42.7484 26.2889 42.4712 26.4243 42.2173C26.564 41.9591 26.7523 41.7454 26.9893 41.5762C27.167 41.445 27.4082 41.335 27.7129 41.2461C28.0218 41.153 28.3519 41.1064 28.7031 41.1064C29.2321 41.1064 29.6955 41.1826 30.0933 41.335C30.4953 41.4873 30.7915 41.6947 30.9819 41.957C31.1724 42.2152 31.3035 42.5622 31.3755 42.998L30.2583 43.1504C30.2075 42.8034 30.0594 42.5326 29.814 42.3379C29.5728 42.1432 29.23 42.0459 28.7856 42.0459C28.2609 42.0459 27.8864 42.1326 27.6621 42.3062C27.4378 42.4797 27.3257 42.6828 27.3257 42.9155C27.3257 43.0636 27.3722 43.1969 27.4653 43.3154C27.5584 43.4382 27.7044 43.5397 27.9033 43.6201C28.0176 43.6624 28.354 43.7598 28.9126 43.9121C29.7209 44.1279 30.2837 44.3057 30.6011 44.4453C30.9227 44.5807 31.1745 44.7796 31.3564 45.042C31.5384 45.3044 31.6294 45.6302 31.6294 46.0195C31.6294 46.4004 31.5173 46.7601 31.293 47.0986C31.0729 47.4329 30.7534 47.6932 30.3345 47.8794C29.9155 48.0614 29.4416 48.1523 28.9126 48.1523C28.0366 48.1523 27.368 47.9704 26.9067 47.6064C26.4497 47.2425 26.1577 46.703 26.0308 45.9878ZM35.4824 46.978L35.6475 47.9873C35.3258 48.055 35.0381 48.0889 34.7842 48.0889C34.3695 48.0889 34.0479 48.0233 33.8193 47.8921C33.5908 47.7609 33.43 47.5895 33.3369 47.3779C33.2438 47.1621 33.1973 46.7114 33.1973 46.0259V42.1475H32.3594V41.2588H33.1973V39.5894L34.3335 38.9038V41.2588H35.4824V42.1475H34.3335V46.0894C34.3335 46.4152 34.3525 46.6247 34.3906 46.7178C34.4329 46.8109 34.4985 46.8849 34.5874 46.9399C34.6805 46.995 34.8117 47.0225 34.981 47.0225C35.1079 47.0225 35.2751 47.0076 35.4824 46.978ZM36.1807 44.6294C36.1807 43.381 36.5277 42.4564 37.2217 41.8555C37.8014 41.3561 38.5081 41.1064 39.3418 41.1064C40.2686 41.1064 41.026 41.4111 41.6143 42.0205C42.2025 42.6257 42.4966 43.4635 42.4966 44.5342C42.4966 45.4017 42.3654 46.0851 42.103 46.5845C41.8449 47.0796 41.4661 47.4647 40.9668 47.7397C40.4717 48.0148 39.93 48.1523 39.3418 48.1523C38.3981 48.1523 37.6343 47.8498 37.0503 47.2446C36.4705 46.6395 36.1807 45.7677 36.1807 44.6294ZM37.355 44.6294C37.355 45.4927 37.5433 46.1401 37.9199 46.5718C38.2965 46.9992 38.7705 47.2129 39.3418 47.2129C39.9089 47.2129 40.3807 46.9971 40.7573 46.5654C41.134 46.1338 41.3223 45.4757 41.3223 44.5913C41.3223 43.7576 41.1318 43.1271 40.751 42.6997C40.3743 42.2681 39.9046 42.0522 39.3418 42.0522C38.7705 42.0522 38.2965 42.266 37.9199 42.6934C37.5433 43.1208 37.355 43.7661 37.355 44.6294ZM43.8423 48V41.2588H44.8643V42.2046C45.0758 41.8745 45.3573 41.61 45.7085 41.4111C46.0597 41.208 46.4596 41.1064 46.9082 41.1064C47.4076 41.1064 47.8159 41.2101 48.1333 41.4175C48.4549 41.6248 48.6813 41.9147 48.8125 42.2871C49.3457 41.5 50.0397 41.1064 50.8945 41.1064C51.5632 41.1064 52.0773 41.2926 52.437 41.665C52.7967 42.0332 52.9766 42.6024 52.9766 43.3726V48H51.8403V43.7534C51.8403 43.2964 51.8022 42.9684 51.7261 42.7695C51.6541 42.5664 51.5208 42.4035 51.3262 42.2808C51.1315 42.158 50.903 42.0967 50.6406 42.0967C50.1667 42.0967 49.7731 42.2554 49.46 42.5728C49.1468 42.8859 48.9902 43.3895 48.9902 44.0835V48H47.8477V43.6201C47.8477 43.1123 47.7546 42.7314 47.5684 42.4775C47.3822 42.2236 47.0775 42.0967 46.6543 42.0967C46.3327 42.0967 46.0343 42.1813 45.7593 42.3506C45.4884 42.5199 45.2917 42.7674 45.1689 43.0933C45.0462 43.4191 44.9849 43.8888 44.9849 44.5024V48H43.8423ZM59.2861 45.8291L60.4668 45.9751C60.2806 46.6649 59.9357 47.2002 59.4321 47.5811C58.9285 47.9619 58.2853 48.1523 57.5024 48.1523C56.5164 48.1523 55.7336 47.8498 55.1538 47.2446C54.5783 46.6353 54.2905 45.7826 54.2905 44.6865C54.2905 43.5524 54.5825 42.6722 55.1665 42.0459C55.7505 41.4196 56.508 41.1064 57.439 41.1064C58.3403 41.1064 59.0767 41.4132 59.6479 42.0269C60.2192 42.6405 60.5049 43.5037 60.5049 44.6167C60.5049 44.6844 60.5028 44.786 60.4985 44.9214H55.4712C55.5135 45.6619 55.723 46.229 56.0996 46.6226C56.4762 47.0161 56.946 47.2129 57.5088 47.2129C57.9277 47.2129 58.2853 47.1029 58.5815 46.8828C58.8778 46.6628 59.1126 46.3115 59.2861 45.8291ZM55.5347 43.9819H59.2988C59.248 43.4149 59.1042 42.9896 58.8672 42.7061C58.5033 42.266 58.0314 42.0459 57.4517 42.0459C56.9269 42.0459 56.4847 42.2215 56.125 42.5728C55.7695 42.924 55.5728 43.3937 55.5347 43.9819ZM61.895 48V41.2588H62.9233V42.2808C63.1857 41.8026 63.4269 41.4873 63.647 41.335C63.8713 41.1826 64.1167 41.1064 64.3833 41.1064C64.7684 41.1064 65.1598 41.2292 65.5576 41.4746L65.1641 42.5347C64.8848 42.3696 64.6055 42.2871 64.3262 42.2871C64.0765 42.2871 63.8522 42.3633 63.6533 42.5156C63.4544 42.6637 63.3127 42.8711 63.228 43.1377C63.1011 43.5439 63.0376 43.9883 63.0376 44.4707V48H61.895ZM70.0708 38.7578H73.1304C73.8244 38.7578 74.4105 38.8636 74.8887 39.0752C75.3711 39.2868 75.7371 39.5999 75.9868 40.0146C76.2407 40.4251 76.3677 40.9308 76.3677 41.5317C76.3677 41.9549 76.2809 42.3421 76.1074 42.6934C75.9382 43.0404 75.6927 43.3366 75.3711 43.582C75.0537 43.8232 74.6729 44.0031 74.2285 44.1216L73.8857 44.2549H71.0103L70.9976 43.2583H73.1685C73.6086 43.2583 73.9746 43.1821 74.2666 43.0298C74.5586 42.8732 74.7786 42.6637 74.9268 42.4014C75.0749 42.139 75.1489 41.8491 75.1489 41.5317C75.1489 41.1763 75.0791 40.8652 74.9395 40.5986C74.7998 40.332 74.5798 40.1268 74.2793 39.9829C73.9831 39.8348 73.6001 39.7607 73.1304 39.7607H71.2959V48H70.0708V38.7578ZM75.4727 48L73.2256 43.8105L74.5015 43.8042L76.7803 47.9238V48H75.4727ZM82.4805 45.8291L83.6611 45.9751C83.4749 46.6649 83.13 47.2002 82.6265 47.5811C82.1229 47.9619 81.4797 48.1523 80.6968 48.1523C79.7108 48.1523 78.9279 47.8498 78.3481 47.2446C77.7726 46.6353 77.4849 45.7826 77.4849 44.6865C77.4849 43.5524 77.7769 42.6722 78.3608 42.0459C78.9448 41.4196 79.7023 41.1064 80.6333 41.1064C81.5347 41.1064 82.271 41.4132 82.8423 42.0269C83.4136 42.6405 83.6992 43.5037 83.6992 44.6167C83.6992 44.6844 83.6971 44.786 83.6929 44.9214H78.6655C78.7078 45.6619 78.9173 46.229 79.2939 46.6226C79.6706 47.0161 80.1403 47.2129 80.7031 47.2129C81.1221 47.2129 81.4797 47.1029 81.7759 46.8828C82.0721 46.6628 82.307 46.3115 82.4805 45.8291ZM78.729 43.9819H82.4932C82.4424 43.4149 82.2985 42.9896 82.0615 42.7061C81.6976 42.266 81.2257 42.0459 80.646 42.0459C80.1213 42.0459 79.679 42.2215 79.3193 42.5728C78.9639 42.924 78.7671 43.3937 78.729 43.9819ZM86.9746 48L84.4102 41.2588H85.6162L87.0635 45.2959C87.2201 45.7318 87.3639 46.1846 87.4951 46.6543C87.5967 46.2988 87.7384 45.8714 87.9204 45.3721L89.4185 41.2588H90.5928L88.041 48H86.9746ZM91.6084 40.0083V38.6943H92.751V40.0083H91.6084ZM91.6084 48V41.2588H92.751V48H91.6084ZM99.1113 45.8291L100.292 45.9751C100.106 46.6649 99.7609 47.2002 99.2573 47.5811C98.7537 47.9619 98.1105 48.1523 97.3276 48.1523C96.3416 48.1523 95.5588 47.8498 94.979 47.2446C94.4035 46.6353 94.1157 45.7826 94.1157 44.6865C94.1157 43.5524 94.4077 42.6722 94.9917 42.0459C95.5757 41.4196 96.3332 41.1064 97.2642 41.1064C98.1655 41.1064 98.9019 41.4132 99.4731 42.0269C100.044 42.6405 100.33 43.5037 100.33 44.6167C100.33 44.6844 100.328 44.786 100.324 44.9214H95.2964C95.3387 45.6619 95.5482 46.229 95.9248 46.6226C96.3014 47.0161 96.7712 47.2129 97.334 47.2129C97.7529 47.2129 98.1105 47.1029 98.4067 46.8828C98.703 46.6628 98.9378 46.3115 99.1113 45.8291ZM95.3599 43.9819H99.124C99.0732 43.4149 98.9294 42.9896 98.6924 42.7061C98.3285 42.266 97.8566 42.0459 97.2769 42.0459C96.7521 42.0459 96.3099 42.2215 95.9502 42.5728C95.5947 42.924 95.3979 43.3937 95.3599 43.9819ZM102.977 48L100.914 41.2588H102.095L103.167 45.1499L103.567 46.5972C103.584 46.5252 103.701 46.0618 103.917 45.207L104.989 41.2588H106.164L107.173 45.1689L107.509 46.4575L107.896 45.1562L109.052 41.2588H110.163L108.055 48H106.868L105.795 43.9629L105.535 42.814L104.17 48H102.977ZM110.67 45.9878L111.8 45.8101C111.864 46.2629 112.039 46.6099 112.327 46.8511C112.619 47.0923 113.025 47.2129 113.546 47.2129C114.071 47.2129 114.46 47.1071 114.714 46.8955C114.968 46.6797 115.095 46.4279 115.095 46.1401C115.095 45.882 114.983 45.6789 114.758 45.5308C114.602 45.4292 114.212 45.3001 113.59 45.1436C112.752 44.932 112.171 44.75 111.845 44.5977C111.523 44.4411 111.278 44.2274 111.108 43.9565C110.943 43.6815 110.861 43.3789 110.861 43.0488C110.861 42.7484 110.929 42.4712 111.064 42.2173C111.204 41.9591 111.392 41.7454 111.629 41.5762C111.807 41.445 112.048 41.335 112.353 41.2461C112.661 41.153 112.992 41.1064 113.343 41.1064C113.872 41.1064 114.335 41.1826 114.733 41.335C115.135 41.4873 115.431 41.6947 115.622 41.957C115.812 42.2152 115.943 42.5622 116.015 42.998L114.898 43.1504C114.847 42.8034 114.699 42.5326 114.454 42.3379C114.212 42.1432 113.87 42.0459 113.425 42.0459C112.901 42.0459 112.526 42.1326 112.302 42.3062C112.077 42.4797 111.965 42.6828 111.965 42.9155C111.965 43.0636 112.012 43.1969 112.105 43.3154C112.198 43.4382 112.344 43.5397 112.543 43.6201C112.657 43.6624 112.994 43.7598 113.552 43.9121C114.361 44.1279 114.923 44.3057 115.241 44.4453C115.562 44.5807 115.814 44.7796 115.996 45.042C116.178 45.3044 116.269 45.6302 116.269 46.0195C116.269 46.4004 116.157 46.7601 115.933 47.0986C115.713 47.4329 115.393 47.6932 114.974 47.8794C114.555 48.0614 114.081 48.1523 113.552 48.1523C112.676 48.1523 112.008 47.9704 111.546 47.6064C111.089 47.2425 110.797 46.703 110.67 45.9878Z" fill="#818181"/>
<path d="M36.5 9L37.7931 12.7202L41.7308 12.8004L38.5923 15.1798L39.7328 18.9496L36.5 16.7L33.2672 18.9496L34.4077 15.1798L31.2692 12.8004L35.2069 12.7202L36.5 9Z" fill="#E57125"/>
<path d="M46.5 9L47.7931 12.7202L51.7308 12.8004L48.5923 15.1798L49.7328 18.9496L46.5 16.7L43.2672 18.9496L44.4077 15.1798L41.2692 12.8004L45.2069 12.7202L46.5 9Z" fill="#E57125"/>
<path d="M56.5 9L57.7931 12.7202L61.7308 12.8004L58.5923 15.1798L59.7328 18.9496L56.5 16.7L53.2672 18.9496L54.4077 15.1798L51.2692 12.8004L55.2069 12.7202L56.5 9Z" fill="#E57125"/>
<path d="M66.5 9L67.7931 12.7202L71.7308 12.8004L68.5923 15.1798L69.7328 18.9496L66.5 16.7L63.2672 18.9496L64.4077 15.1798L61.2692 12.8004L65.2069 12.7202L66.5 9Z" fill="#E57125"/>
<path d="M76.5 9L77.7931 12.7202L81.7308 12.8004L78.5923 15.1798L79.7328 18.9496L76.5 16.7L73.2672 18.9496L74.4077 15.1798L71.2692 12.8004L75.2069 12.7202L76.5 9Z" fill="#E57125"/>
<defs>
<clipPath id="clip0_4210_29821">
<rect width="41" height="13" fill="white" transform="translate(9 23)"/>
</clipPath>
</defs>
</svg>
