<svg width="34" height="22" viewBox="0 0 34 22" fill="none" xmlns="http://www.w3.org/2000/svg">
<path d="M28 11L33 16M23 16L28 11L23 16ZM33 6L28 11L33 6ZM28 11L23 6L28 11Z" stroke="white" stroke-width="1.5" stroke-linecap="round" stroke-linejoin="round"/>
<path d="M1 14.2637V7.7396C1 7.30703 1.16857 6.89218 1.46863 6.5863C1.76869 6.28043 2.17565 6.10859 2.6 6.10859H6.9152C7.23125 6.10866 7.54024 6.01331 7.8032 5.83458L14.512 1.27426C14.7532 1.11022 15.0336 1.01607 15.3232 1.00188C15.6128 0.987689 15.9007 1.05398 16.1562 1.19368C16.4117 1.33338 16.6252 1.54122 16.7738 1.795C16.9224 2.04879 17.0006 2.33896 17 2.63452V19.3687C17 19.664 16.9214 19.9538 16.7726 20.2071C16.6237 20.4604 16.4102 20.6678 16.1548 20.8071C15.8994 20.9464 15.6117 21.0124 15.3224 20.9981C15.033 20.9838 14.753 20.8896 14.512 20.7257L7.8032 16.1671C7.54006 15.9889 7.23109 15.8941 6.9152 15.8947H2.6C2.17565 15.8947 1.76869 15.7228 1.46863 15.417C1.16857 15.1111 1 14.6962 1 14.2637Z" stroke="white" stroke-width="1.5"/>
</svg>
