<svg width="193" height="193" viewBox="0 0 193 193" fill="none" xmlns="http://www.w3.org/2000/svg">
<path d="M96.4987 0C77.4128 0 58.7563 5.66101 42.887 16.2645C27.0177 26.8681 14.6486 41.938 7.34475 59.571C0.0408943 77.2041 -1.86889 96.6074 1.85458 115.327C5.57806 134.046 14.7679 151.241 28.2637 164.736C41.7595 178.232 58.953 187.422 77.6722 191.145C96.3914 194.869 115.795 192.959 133.428 185.655C151.061 178.351 166.134 165.982 176.737 150.113C187.341 134.244 192.999 115.586 192.999 96.5001C192.966 70.9169 182.79 46.3918 164.7 28.3017C146.61 10.2116 122.082 0.0328201 96.4987 0ZM96.4987 186.798C78.6394 186.798 61.1826 181.502 46.3331 171.58C31.4837 161.658 19.9086 147.556 13.0741 131.057C6.23969 114.557 4.45108 96.3996 7.93525 78.8835C11.4194 61.3674 20.0202 45.2786 32.6486 32.6502C45.277 20.0218 61.3673 11.4211 78.8835 7.93695C96.3996 4.45278 114.554 6.24139 131.054 13.0758C147.554 19.9103 161.658 31.4838 171.58 46.3332C181.503 61.1826 186.797 78.6409 186.797 96.5001C186.764 120.439 177.239 143.388 160.312 160.315C143.385 177.242 120.437 186.766 96.4987 186.798Z" fill="white"/>
<path d="M156.905 93.7715L68.7136 42.9171C68.2518 42.6181 67.7133 42.4584 67.1632 42.4584C66.613 42.4584 66.0745 42.6181 65.6127 42.9171C65.124 43.153 64.7143 43.5232 64.4287 43.9846C64.1431 44.446 63.9949 44.9788 64.0017 45.5214V147.354C64.0002 147.912 64.1479 148.461 64.4317 148.941C64.7155 149.421 65.1233 149.816 65.6127 150.084H67.1026C67.6326 150.211 68.1836 150.211 68.7136 150.084L156.905 99.2283C157.366 98.9378 157.746 98.5366 158.01 98.0594C158.273 97.5822 158.41 97.045 158.41 96.4999C158.41 95.9548 158.273 95.4191 158.01 94.9419C157.746 94.4647 157.366 94.062 156.905 93.7715ZM70.0793 142.022V50.9798L148.965 96.4999L70.0793 142.022Z" fill="white"/>
</svg>
