<svg width="34" height="26" viewBox="0 0 34 26" fill="none" xmlns="http://www.w3.org/2000/svg">
<path d="M1 17.2637V10.7396C1 10.307 1.16857 9.89218 1.46863 9.5863C1.76869 9.28043 2.17565 9.10859 2.6 9.10859H6.9152C7.23125 9.10866 7.54024 9.01331 7.8032 8.83458L14.512 4.27426C14.7532 4.11022 15.0336 4.01607 15.3232 4.00188C15.6128 3.98769 15.9007 4.05398 16.1562 4.19368C16.4117 4.33338 16.6252 4.54122 16.7738 4.795C16.9224 5.04879 17.0006 5.33896 17 5.63452V22.3687C17 22.664 16.9214 22.9538 16.7726 23.2071C16.6237 23.4604 16.4102 23.6678 16.1548 23.8071C15.8994 23.9464 15.6117 24.0124 15.3224 23.9981C15.033 23.9838 14.753 23.8896 14.512 23.7257L7.8032 19.1671C7.54006 18.9889 7.23109 18.8941 6.9152 18.8947H2.6C2.17565 18.8947 1.76869 18.7228 1.46863 18.417C1.16857 18.1111 1 17.6962 1 17.2637V17.2637Z" stroke="white" stroke-width="1.5"/>
<path d="M23.5 6.5C23.5 6.5 26 9 26 13.1667C26 17.3333 23.5 19.8333 23.5 19.8333M28.5 1.5C28.5 1.5 32.6667 5.66667 32.6667 13.1667C32.6667 20.6667 28.5 24.8333 28.5 24.8333" stroke="white" stroke-width="1.5" stroke-linecap="round" stroke-linejoin="round"/>
</svg>
