<svg width="36" height="36" viewBox="0 0 36 36" fill="none" xmlns="http://www.w3.org/2000/svg">
<g filter="url(#filter0_d_1866_789)">
<circle cx="16" cy="16" r="14" fill="white"/>
</g>
<path d="M22.7663 11.2337C22.3753 10.8426 21.9111 10.5323 21.4002 10.3206C20.8893 10.109 20.3417 10 19.7887 10C19.2357 10 18.6881 10.109 18.1772 10.3206C17.6663 10.5323 17.2021 10.8426 16.8112 11.2337L15.9998 12.0451L15.1884 11.2337C14.3987 10.4441 13.3277 10.0004 12.2109 10.0004C11.0941 10.0004 10.023 10.4441 9.23334 11.2337C8.44365 12.0234 8 13.0945 8 14.2113C8 15.3281 8.44365 16.3991 9.23334 17.1888L10.0447 18.0002L15.9998 23.9553L21.9549 18.0002L22.7663 17.1888C23.1574 16.7979 23.4677 16.3337 23.6794 15.8228C23.891 15.3119 24 14.7643 24 14.2113C24 13.6583 23.891 13.1107 23.6794 12.5998C23.4677 12.0889 23.1574 11.6247 22.7663 11.2337V11.2337Z" stroke="#8C8C8C" stroke-linecap="round" stroke-linejoin="round"/>
<defs>
<filter id="filter0_d_1866_789" x="0" y="0" width="36" height="36" filterUnits="userSpaceOnUse" color-interpolation-filters="sRGB">
<feFlood flood-opacity="0" result="BackgroundImageFix"/>
<feColorMatrix in="SourceAlpha" type="matrix" values="0 0 0 0 0 0 0 0 0 0 0 0 0 0 0 0 0 0 127 0" result="hardAlpha"/>
<feOffset dx="2" dy="2"/>
<feGaussianBlur stdDeviation="2"/>
<feColorMatrix type="matrix" values="0 0 0 0 0 0 0 0 0 0 0 0 0 0 0 0 0 0 0.15 0"/>
<feBlend mode="normal" in2="BackgroundImageFix" result="effect1_dropShadow_1866_789"/>
<feBlend mode="normal" in="SourceGraphic" in2="effect1_dropShadow_1866_789" result="shape"/>
</filter>
</defs>
</svg>
